<svg xmlns="http://www.w3.org/2000/svg" xmlns:xlink="http://www.w3.org/1999/xlink" width="148" height="148" viewBox="0 0 148 148">
  <defs>
    <rect id="icon_cake-a" width="72" height="15" x="0" y="46"/>
  </defs>
  <g fill="none" fill-rule="evenodd">
    <circle cx="74" cy="74" r="74" fill="#FFF"/>
    <g transform="translate(38 30)">
      <path fill="#D8D8D8" d="M69,68 L0,68 L0,68 L0,42 C-2.705415e-16,39.790861 1.790861,38 4,38 C14.8635241,38 25.7270482,38 36.5905724,38 C47.0603816,38 57.5301908,38 68,38 C70.209139,38 72,39.790861 72,42 L72,65 C72,66.6568542 70.6568542,68 69,68 Z"/>
      <path fill="#515151" d="M0,60.3847487 L0,77 C2.41027941e-15,78.6568542 1.34314575,80 3,80 L69,80 C70.6568542,80 72,78.6568542 72,77 L72,60.3847487 L72,60.3847487 L62.8808252,55 C58.5216252,58.5898324 54.2015775,60.3847487 49.9206824,60.3847487 C45.6397873,60.3847487 41.2073324,58.5898324 36.6233178,55 C31.9894964,58.4523153 27.5166265,60.2472315 23.2047081,60.3847487 C18.8927898,60.5222658 14.353536,59.0147671 9.58694682,55.8622528 L0,60.3847487 Z"/>
      <rect width="6" height="20" x="34" y="19" fill="#D8D8D8"/>
      <path fill="#F77" d="M42,7.70374973 C42,12.7413603 38.669924,15.1656436 34.7372928,13.4548383 C30.8046616,11.7440331 32.1189593,7.14046781 32.6093416,6.40261836 C34.0076565,4.29865615 35.9755075,4.29653242 36.3032567,3.64338228 C36.745946,2.76117551 37.0428879,1.54671476 37.1940825,0 C40.3980275,1.7774261 42,4.34534268 42,7.70374973 Z"/>
      <rect width="6" height="20" x="50" y="19" fill="#D8D8D8"/>
      <path fill="#F77" d="M58,7.70374973 C58,12.7413603 54.669924,15.1656436 50.7372928,13.4548383 C46.8046616,11.7440331 48.1189593,7.14046781 48.6093416,6.40261836 C50.0076565,4.29865615 51.9755075,4.29653242 52.3032567,3.64338228 C52.745946,2.76117551 53.0428879,1.54671476 53.1940825,0 C56.3980275,1.7774261 58,4.34534268 58,7.70374973 Z"/>
      <rect width="6" height="20" x="17" y="19" fill="#D8D8D8"/>
      <path fill="#F77" d="M25,7.70374973 C25,12.7413603 21.669924,15.1656436 17.7372928,13.4548383 C13.8046616,11.7440331 15.1189593,7.14046781 15.6093416,6.40261836 C17.0076565,4.29865615 18.9755075,4.29653242 19.3032567,3.64338228 C19.745946,2.76117551 20.0428879,1.54671476 20.1940825,0 C23.3980275,1.7774261 25,4.34534268 25,7.70374973 Z"/>
      <mask id="icon_cake-b" fill="#fff">
        <use xlink:href="#icon_cake-a"/>
      </mask>
      <path stroke="#979797" stroke-linecap="round" stroke-width="5" d="M1,53.9895315 L10.4537948,49.7989672 C14.508088,52.7394627 18.9842966,54.1363175 23.8824205,53.9895315 C28.7805445,53.8427456 33.1912912,52.1795684 37.1146606,49 C41.9412692,52.3263543 46.5071739,53.9895315 50.8123746,53.9895315 C55.1175753,53.9895315 59.1826106,52.3263543 63.0074805,49 L72,53.9895315" mask="url(#icon_cake-b)"/>
    </g>
  </g>
</svg>
