<svg xmlns="http://www.w3.org/2000/svg" width="148" height="148" viewBox="0 0 148 148">
  <g fill="none" fill-rule="evenodd">
    <circle cx="74" cy="74" r="74" fill="#FFF"/>
    <g transform="translate(27 35)">
      <rect width="68" height="79" x="15" fill="#E0E0E0" rx="3"/>
      <rect width="42" height="5" x="19" y="21" fill="#A0A0A0" rx="1"/>
      <rect width="42" height="2.5" x="19" y="33" fill="#A0A0A0" rx="1"/>
      <rect width="49" height="2.5" x="19" y="37" fill="#A0A0A0" rx="1"/>
      <rect width="52" height="2.5" x="19" y="41" fill="#A0A0A0" rx="1"/>
      <rect width="39" height="2.5" x="19" y="45" fill="#A0A0A0" rx="1"/>
      <rect width="30" height="2.5" x="19" y="53" fill="#A0A0A0" rx="1"/>
      <rect width="52" height="2.5" x="19" y="49" fill="#A0A0A0" rx="1"/>
      <circle cx="36" cy="31" r="22" fill="#B0A8A8" transform="matrix(-1 0 0 1 72 0)" style="mix-blend-mode:multiply"/>
      <path fill="#464FF2" fill-rule="nonzero" d="M36,9 C48.1502645,9 58,18.8497355 58,31 C58,43.1502645 48.1502645,53 36,53 C23.8497355,53 14,43.1502645 14,31 C14,18.8497355 23.8497355,9 36,9 Z M36,13.5128205 C26.3420975,13.5128205 18.5128205,21.3420975 18.5128205,31 C18.5128205,40.6579025 26.3420975,48.4871795 36,48.4871795 C45.6579025,48.4871795 53.4871795,40.6579025 53.4871795,31 C53.4871795,21.3420975 45.6579025,13.5128205 36,13.5128205 Z" transform="matrix(-1 0 0 1 72 0)"/>
      <path fill="#464FF2" d="M0,49.4921881 L18.3404136,67.7858023 C19.567326,69.009584 21.5532255,69.009584 22.7801379,67.7858023 C24.0030055,66.5660551 24.0055351,64.5859245 22.7857879,63.3630569 C22.7839069,63.3611712 22.7820236,63.3592879 22.7801379,63.3574069 L4.37576833,45 L4.37576833,45 L0,49.4921881 Z" transform="matrix(-1 0 0 1 25 0)"/>
    </g>
  </g>
</svg>
