<svg xmlns="http://www.w3.org/2000/svg" width="148" height="148" viewBox="0 0 148 148">
  <g fill="none" fill-rule="evenodd">
    <circle cx="74" cy="74" r="74" fill="#FFF"/>
    <g transform="translate(41 41.563)">
      <rect width="66" height="43" y="11.437" fill="#D8D8D8" rx="3"/>
      <rect width="66" height="9" y="20.437" fill="#515151"/>
      <path fill="#FEDEC8" d="M25.9349131,11.437166 L28.3619781,8.96843291 C31.9747579,5.29362875 36.7629194,3.00368446 41.8913351,2.49800095 L67.2249418,1.10134124e-13 L67.2249418,1.10134124e-13 L105.073691,14.2202997 C106.357897,19.602465 107,25.0279252 107,30.4966803 C107,35.9654354 106.575231,41.3400084 105.725694,46.6203992 L94.0511613,39.010694 L66,36.7871412 L35.9404219,31.7251281 C29.8753644,30.2325481 27.3289294,27.969894 28.3011167,24.937166 C29.273304,21.904438 41.8395985,21.4075647 66,23.4465462 L62.7460254,14.2202997 L25.9349131,11.437166 Z"/>
      <path fill="#D8D8D8" d="M11,11.437166 L63,11.437166 C64.6568542,11.437166 66,12.7803117 66,14.437166 L66,20.437166 L66,20.437166 L11,20.437166 L11,11.437166 Z"/>
      <polygon fill="#515151" points="62 20.437 66 20.437 66 23.437 62 23.111"/>
    </g>
  </g>
</svg>
