<svg xmlns="http://www.w3.org/2000/svg" width="148" height="148" viewBox="0 0 148 148">
  <g fill="none" fill-rule="evenodd">
    <circle cx="74" cy="74" r="74" fill="#FFF"/>
    <g transform="rotate(-20 140.74 -78.11)">
      <rect width="19" height="40" x="17" y="44" fill="#636363" rx="2"/>
      <rect width="52" height="30" y="8" fill="#D8D8D8"/>
      <line x1="6.81" x2="6.81" y1="39.224" y2="26.555" stroke="#979797" stroke-linecap="round" stroke-width="3"/>
      <line x1="17" x2="17" y1="15.198" y2="42.623" stroke="#979797" stroke-linecap="round" stroke-width="3"/>
      <line x1="33.174" x2="33.174" y1="9.606" y2="26.555" stroke="#979797" stroke-linecap="round" stroke-width="3"/>
      <line x1="44.313" x2="44.313" y1="10.637" y2="33.837" stroke="#979797" stroke-linecap="round" stroke-width="3"/>
      <path fill="#515151" d="M0,38 L52,38 L52,50 C52,51.6568542 50.6568542,53 49,53 L3,53 C1.34314575,53 2.02906125e-16,51.6568542 0,50 L0,38 L0,38 Z"/>
      <path fill="#F77" d="M0,15.1981561 C3.42059789,12.4405914 7.52093137,10.8844718 12.3010004,10.5297973 C19.471104,9.99778558 26.4549674,13.8464481 36.9774276,13.4934264 C43.9924011,13.2580786 48.9999252,11.8589046 52,9.29590451 L52,2 C52,0.8954305 51.1045695,-1.13001565e-13 50,-1.12798659e-13 L2,-1.12798659e-13 C0.8954305,-1.12817798e-13 -1.3527075e-16,0.8954305 0,2 L0,15.1981561 L0,15.1981561 Z"/>
      <path stroke="#FF5F5F" stroke-linecap="round" d="M0,15.1981561 C2.20455612,12.396437 6.38102079,10.8759019 12.529394,10.6365509 C21.7519539,10.2775243 26.723174,13.8206392 36,13.7464814 C42.1845506,13.6970429 47.517884,12.2135173 52,9.29590451"/>
      <rect width="52" height="5" y="36" fill="#969696"/>
    </g>
  </g>
</svg>
